<?xml version="1.0" encoding="iso-8859-1"?>
<!-- Generator: Adobe Illustrator 19.0.0, SVG Export Plug-In . SVG Version: 6.00 Build 0)  -->
<svg xmlns="http://www.w3.org/2000/svg" xmlns:xlink="http://www.w3.org/1999/xlink" version="1.1" id="Layer_1" x="0px" y="0px" viewBox="0 0 511.84 511.84" style="enable-background:new 0 0 511.84 511.84;" xml:space="preserve" width="512px" height="512px">
<g>
	<g>
		<g>
			<path d="M451.451,60.188c-2.287-3.951-5.973-6.775-10.368-7.953l-8.235-2.202c-4.412-1.178-9.02-0.589-12.962,1.698     c-3.951,2.278-6.776,5.965-7.945,10.368l-2.21,8.243l-8.252-2.21l4.429-16.495c2.432-9.079-2.987-18.458-12.075-20.898     l-49.451-13.252c-9.173-2.423-18.475,2.987-20.907,12.066l-6.622,24.738l-26.505,98.91c-0.589,2.176-0.29,4.514,0.845,6.468     c1.135,1.963,3.004,3.396,5.188,3.977l-15.556,58.061h-4.617V85.173c0-23.953-8.235-47.437-23.185-66.116L240.217,3.04     c-3.251-4.053-10.086-4.053-13.338,0l-12.8,16.017c-14.959,18.68-23.202,42.163-23.202,66.116v136.533h-4.77L146.41,73.551     l-4.412-16.478c-2.953-11.008-10.01-20.207-19.874-25.907c-9.873-5.692-21.376-7.211-32.375-4.258     c-11.008,2.944-20.207,10.01-25.907,19.874c-5.7,9.865-7.219,21.367-4.267,32.375l4.412,16.444v0.034l34.799,129.852     c-11.119,5.632-18.842,17.05-18.842,30.353c0,15.863,10.923,29.107,25.6,32.922v188.945c0,18.825,15.309,34.133,34.133,34.133     H327.41c18.825,0,34.133-15.309,34.133-34.133v-25.6H199.41c-4.71,0-8.533-3.814-8.533-8.533v-102.4     c0-4.719,3.823-8.533,8.533-8.533h162.133v-43.878c14.686-3.814,25.6-17.058,25.6-32.922c0-18.825-15.309-34.133-34.133-34.133     h-1.51l10.82-40.397c0.742,0.205,1.485,0.299,2.219,0.299c3.763,0,7.219-2.517,8.235-6.332l24.294-90.667l8.243,2.21     l-17.673,65.946c-1.186,4.403-0.572,9.003,1.707,12.945c2.287,3.951,5.965,6.776,10.368,7.953l8.243,2.21     c1.476,0.393,2.953,0.58,4.403,0.58c7.526,0,14.447-5.035,16.495-12.646l24.294-90.658     C454.327,68.738,453.729,64.139,451.451,60.188z M78.271,82.98l-2.219-8.243c-1.766-6.596-0.853-13.5,2.56-19.422     c3.43-5.922,8.943-10.163,15.548-11.93c2.21-0.589,4.454-0.879,6.682-0.879c4.429,0,8.806,1.161,12.749,3.439     c5.914,3.422,10.155,8.934,11.921,15.539l2.21,8.243L78.271,82.98z M353.01,238.773c9.412,0,17.067,7.654,17.067,17.067     c0,9.404-7.654,17.067-17.067,17.067H114.077c-9.404,0-17.067-7.663-17.067-17.067c0-9.412,7.663-17.067,17.067-17.067h65.485     h19.849h68.267h19.695h53.009H353.01z M358.497,162.622l-49.459-13.252l22.093-82.423l49.451,13.252L358.497,162.622z      M384.993,63.712L335.551,50.46l4.412-16.486l49.459,13.252L384.993,63.712z" fill="#FFFFFF"/>
			<path d="M207.947,435.038h153.6v-17.067H250.614c-4.719,0-8.533-3.814-8.533-8.533s3.814-8.533,8.533-8.533h110.933v-17.067h-128     c-4.719,0-8.533-3.814-8.533-8.533s3.814-8.533,8.533-8.533h128v-17.067h-153.6V435.038z" fill="#FFFFFF"/>
		</g>
	</g>
</g>
<g>
</g>
<g>
</g>
<g>
</g>
<g>
</g>
<g>
</g>
<g>
</g>
<g>
</g>
<g>
</g>
<g>
</g>
<g>
</g>
<g>
</g>
<g>
</g>
<g>
</g>
<g>
</g>
<g>
</g>
</svg>
